HIERARCHY
ROOT Hips
{
	OFFSET 55.384701 -12.229009 55.322098
	CHANNELS 6 Xposition Yposition Zposition Xrotation Yrotation Zrotation
	JOINT spine
	{
		OFFSET 0.000000 -0.467661 8.132488
		CHANNELS 3 Xrotation Yrotation Zrotation
		JOINT spine1
		{
			OFFSET 0.000000 -0.000002 10.349804
			CHANNELS 3 Xrotation Yrotation Zrotation
			JOINT spine2
			{
				OFFSET 0.000000 -0.000001 9.916992
				CHANNELS 3 Xrotation Yrotation Zrotation
				JOINT Neck
				{
					OFFSET 0.000000 -1.213904 25.460999
					CHANNELS 3 Xrotation Yrotation Zrotation
					JOINT Head
					{
						OFFSET 0.000000 -0.000001 7.692451
						CHANNELS 3 Xrotation Yrotation Zrotation
						End Site
						{
							OFFSET 0.000000 6.140627 18.619995
						}
					}
				}
				JOINT RightShoulder
				{
					OFFSET -4.175751 0.581443 10.709602
					CHANNELS 3 Xrotation Yrotation Zrotation
					JOINT RightArm
					{
						OFFSET 0.000000 -0.000003 14.046600
						CHANNELS 3 Xrotation Yrotation Zrotation
						JOINT RightArmRoll
						{
							OFFSET 0.000000 -0.000001 7.090988
							CHANNELS 3 Xrotation Yrotation Zrotation
							JOINT RightForeArm
							{
								OFFSET 0.000000 -0.000003 20.653503
								CHANNELS 3 Xrotation Yrotation Zrotation
								JOINT RightForeArmRoll
								{
									OFFSET 0.000000 -0.000002 7.957184
									CHANNELS 3 Xrotation Yrotation Zrotation
									JOINT RightHand
									{
										OFFSET 0.000000 -0.000002 15.968292
										CHANNELS 3 Xrotation Yrotation Zrotation
										End Site
										{
											OFFSET 0.000000 0.000000 0.100006
										}
									}
								}
							}
						}
					}
				}
				JOINT LeftShoulder
				{
					OFFSET 4.175751 0.581443 10.709602
					CHANNELS 3 Xrotation Yrotation Zrotation
					JOINT LeftArm
					{
						OFFSET 0.000000 -0.000003 14.046600
						CHANNELS 3 Xrotation Yrotation Zrotation
						JOINT LeftArmRoll
						{
							OFFSET 0.000000 -0.000001 7.090988
							CHANNELS 3 Xrotation Yrotation Zrotation
							JOINT LeftForeArm
							{
								OFFSET 0.000000 -0.000003 20.653503
								CHANNELS 3 Xrotation Yrotation Zrotation
								JOINT LeftForeArmRoll
								{
									OFFSET 0.000000 -0.000002 7.957184
									CHANNELS 3 Xrotation Yrotation Zrotation
									JOINT LeftHand
									{
										OFFSET 0.000000 -0.000002 15.968292
										CHANNELS 3 Xrotation Yrotation Zrotation
										End Site
										{
											OFFSET 0.000000 0.000000 0.100006
										}
									}
								}
							}
						}
					}
				}
			}
		}
	}
	JOINT RightUpLeg
	{
		OFFSET -7.208340 1.108840 -1.321815
		CHANNELS 3 Xrotation Yrotation Zrotation
		JOINT RightUpLegRoll
		{
			OFFSET 0.000000 -0.000003 18.723801
			CHANNELS 3 Xrotation Yrotation Zrotation
			JOINT RightLeg
			{
				OFFSET 0.000000 0.000004 -23.186600
				CHANNELS 3 Xrotation Yrotation Zrotation
				JOINT RightLegRoll
				{
					OFFSET 0.000000 -0.000004 23.262398
					CHANNELS 3 Xrotation Yrotation Zrotation
					JOINT RightFoot
					{
						OFFSET 0.000000 -0.000004 19.362099
						CHANNELS 3 Xrotation Yrotation Zrotation
						JOINT RightToeBase
						{
							OFFSET 0.000000 -0.000003 16.185699
							CHANNELS 3 Xrotation Yrotation Zrotation
							End Site
							{
								OFFSET 0.006859 0.903520 7.838631
							}
						}
					}
				}
			}
		}
	}
	JOINT LeftUpLeg
	{
		OFFSET 7.208340 1.108840 -1.321815
		CHANNELS 3 Xrotation Yrotation Zrotation
		JOINT LeftUpLegRoll
		{
			OFFSET 0.000000 -0.000003 18.723900
			CHANNELS 3 Xrotation Yrotation Zrotation
			JOINT LeftLeg
			{
				OFFSET 0.000000 -0.000004 23.186501
				CHANNELS 3 Xrotation Yrotation Zrotation
				JOINT LeftLegRoll
				{
					OFFSET 0.000000 -0.000004 23.477501
					CHANNELS 3 Xrotation Yrotation Zrotation
					JOINT LeftFoot
					{
						OFFSET 0.000000 -0.000004 19.147003
						CHANNELS 3 Xrotation Yrotation Zrotation
						JOINT LeftToeBase
						{
							OFFSET 0.000000 -0.000002 16.185699
							CHANNELS 3 Xrotation Yrotation Zrotation
							End Site
							{
								OFFSET -0.030746 0.903520 7.838623
							}
						}
					}
				}
			}
		}
	}
}
MOTION
Frames: 5
Frame Time: 0.041667
55.239697 -55.312756 96.647247 -1.764390 0.583403 0.745211 -1.859373 -0.286312 0.076111 0.284417 -0.574300 0.145738 1.929526 -0.572513 0.152607 14.820945 -2.264975 -6.819408 7.083669 -0.356755 -6.799946 -19.137311 -58.604239 -22.621277 -42.562399 -119.134687 -24.422123 0.000001 -0.000001 -0.000002 1.656522 -9.899675 -0.467507 0.000000 0.000001 -3.000000 -5.000218 -7.998782 0.000135 -15.894844 60.661232 18.813203 -43.272701 116.516498 33.560616 -0.000003 0.000000 0.000004 0.074568 9.618222 0.869511 0.000006 -0.000005 3.016701 -5.000231 7.998811 -0.000168 -1.766622 -175.397182 2.437897 -179.999991 0.000005 -1.099000 171.561689 -1.789427 -0.420417 0.000001 -0.000001 0.124488 69.400446 6.910072 2.075321 25.456959 -7.355616 -0.000000 -1.161755 175.185992 -0.356773 -0.000004 -0.000004 -1.103490 -9.286074 1.289601 0.461161 0.000001 -0.000000 -0.179954 70.399033 -6.873478 -2.076402 25.594020 7.355156 -0.203580 
55.241196 -55.333660 96.659851 -1.767870 0.584383 0.735956 -1.854323 -0.285440 0.078976 0.294523 -0.572616 0.151513 1.939626 -0.570761 0.158362 14.754716 -2.296092 -6.820881 7.135303 -0.333344 -6.803593 -19.202440 -58.612155 -22.698455 -42.606519 -119.144672 -24.477236 0.000002 -0.000001 -0.000003 1.664570 -9.902524 -0.467698 0.000001 0.000001 -3.000002 -5.000221 -7.998782 0.000136 -15.905006 60.617014 18.824380 -43.242631 116.563667 33.537667 -0.000003 0.000000 0.000002 0.074563 9.613671 0.870343 0.000005 -0.000005 3.016701 -5.000233 7.998812 -0.000167 -1.754065 -175.403151 2.434447 -179.999991 0.000005 -1.099000 171.583682 -1.787556 -0.420436 0.000001 -0.000001 0.124406 69.388308 6.910162 2.075293 25.456955 -7.355614 0.000001 -1.127220 175.181935 -0.371279 -0.000005 -0.000005 -1.103650 -9.238974 1.301332 0.459930 0.000000 -0.000001 -0.178211 70.379799 -6.873469 -2.077487 25.594715 7.355148 -0.204528 
55.208397 -55.358158 96.668854 -1.772210 0.585562 0.726366 -1.848930 -0.284568 0.082037 0.305316 -0.570934 0.157680 1.950426 -0.569005 0.164509 14.684398 -2.328486 -6.822752 7.189264 -0.308851 -6.807680 -19.271713 -58.619504 -22.780571 -42.652192 -119.155300 -24.534511 -0.000000 0.000001 -0.000002 1.673557 -9.905548 -0.467870 -0.000001 0.000002 -2.999999 -5.000219 -7.998780 0.000135 -15.914856 60.570473 18.835140 -43.211499 116.612885 33.513983 -0.000005 0.000000 0.000001 0.074565 9.608754 0.871254 0.000006 -0.000005 3.016701 -5.000232 7.998811 -0.000167 -1.739250 -175.410104 2.430987 -179.999991 0.000005 -1.099000 171.608161 -1.784695 -0.419234 0.000001 -0.000001 0.124284 69.375133 6.910272 2.075237 25.456959 -7.355615 0.000001 -1.089233 175.175870 -0.387506 -0.000005 -0.000004 -1.103840 -9.187959 1.314325 0.458577 0.000000 -0.000001 -0.176292 70.358544 -6.873481 -2.078705 25.595531 7.355156 -0.205757 
55.224697 -55.346066 96.660851 -1.777160 0.586880 0.716540 -1.843299 -0.283693 0.085233 0.316594 -0.569250 0.164121 1.961706 -0.567245 0.170930 14.611187 -2.361761 -6.824943 7.244870 -0.283605 -6.812116 -19.343907 -58.626451 -22.866165 -42.697599 -119.167048 -24.592006 0.000000 0.000000 -0.000003 1.683204 -9.908697 -0.468024 -0.000001 0.000001 -3.000001 -5.000220 -7.998780 0.000134 -15.924420 60.522245 18.845532 -43.177792 116.664808 33.487632 -0.000005 -0.000000 0.000003 0.074566 9.603582 0.872225 0.000005 -0.000005 3.016700 -5.000233 7.998812 -0.000167 -1.722850 -175.417057 2.427488 -179.999991 0.000005 -1.099000 171.634348 -1.781856 -0.417983 0.000001 -0.000001 0.124134 69.361090 6.910375 2.075330 25.456959 -7.355616 0.000001 -1.048827 175.170802 -0.404988 -0.000005 -0.000005 -1.104040 -9.134195 1.328197 0.457126 0.000001 -0.000001 -0.174250 70.335922 -6.873490 -2.079906 25.596436 7.355152 -0.207160 
55.212696 -55.347057 96.658653 -1.782450 0.588279 0.706579 -1.837533 -0.282818 0.088508 0.328146 -0.567566 0.170718 1.973256 -0.565483 0.177506 14.536284 -2.395546 -6.827355 7.301402 -0.257935 -6.816771 -19.417753 -58.633117 -22.953720 -42.743437 -119.179001 -24.650185 -0.000001 0.000001 -0.000003 1.693233 -9.911928 -0.468165 0.000004 0.000003 -2.999998 -5.000218 -7.998782 0.000134 -15.933851 60.473115 18.855722 -43.143382 116.717660 33.460701 -0.000005 0.000000 0.000004 0.074564 9.598262 0.873230 0.000005 -0.000005 3.016701 -5.000230 7.998811 -0.000167 -1.705552 -175.424024 2.423969 -179.999991 0.000005 -1.099997 171.661519 -1.779006 -0.416703 0.000001 -0.000001 0.123968 69.346747 6.910491 2.075248 25.456960 -7.355616 0.000001 -1.007041 175.164750 -0.423161 -0.000005 -0.000005 -1.104260 -9.078862 1.342573 0.455606 0.000001 -0.000001 -0.172137 70.312549 -6.873469 -2.081247 25.597449 7.355156 -0.208679 
